<svg xmlns="http://www.w3.org/2000/svg" xmlns:xlink="http://www.w3.org/1999/xlink" width="80" zoomAndPan="magnify" viewBox="0 0 60 30.000001" height="40" preserveAspectRatio="xMidYMid meet" version="1.0"><defs><clipPath id="d6b6e73e27"><path d="M 3.871094 12.847656 L 56.855469 12.847656 L 56.855469 20.832031 L 3.871094 20.832031 Z M 3.871094 12.847656 " clip-rule="nonzero"/></clipPath></defs><g clip-path="url(#d6b6e73e27)"><path fill="#000000" d="M 9.316406 15.097656 C 14.996094 14.589844 20.699219 14.171875 26.40625 14.109375 C 32.085938 14.050781 37.777344 14.316406 43.394531 15.152344 C 46.570312 15.625 49.695312 16.300781 52.828125 17.011719 C 52.878906 16.640625 52.925781 16.269531 52.976562 15.902344 C 49.777344 15.574219 46.59375 15.148438 43.386719 14.90625 C 40.179688 14.664062 36.960938 14.539062 33.746094 14.515625 C 27.347656 14.460938 20.925781 14.835938 14.585938 15.707031 C 11.167969 16.171875 7.675781 16.75 4.441406 18.007812 C 4.132812 18.128906 3.914062 18.390625 3.96875 18.738281 C 4.011719 19.03125 4.285156 19.355469 4.617188 19.3125 C 7.949219 18.882812 11.328125 18.703125 14.683594 18.5625 C 17.996094 18.421875 21.308594 18.363281 24.621094 18.386719 C 31.339844 18.4375 38.023438 18.855469 44.710938 19.511719 C 48.445312 19.875 52.175781 20.324219 55.902344 20.746094 C 56.644531 20.832031 56.8125 19.582031 56.078125 19.4375 C 49.484375 18.089844 42.773438 17.457031 36.058594 17.113281 C 29.359375 16.773438 22.644531 16.78125 15.949219 17.132812 C 12.164062 17.328125 8.394531 17.703125 4.617188 17.984375 C 4.671875 18.421875 4.730469 18.855469 4.789062 19.292969 C 10.691406 17.359375 16.914062 16.625 23.078125 16.117188 C 29.410156 15.597656 35.777344 15.515625 42.121094 15.890625 C 45.691406 16.105469 49.304688 16.367188 52.824219 17.011719 C 53.527344 17.140625 53.824219 16.140625 53.125 15.921875 C 50.414062 15.070312 47.589844 14.507812 44.785156 14.082031 C 41.941406 13.65625 39.078125 13.363281 36.207031 13.191406 C 30.488281 12.847656 24.753906 12.929688 19.035156 13.226562 C 15.792969 13.398438 12.550781 13.640625 9.3125 13.917969 C 8.566406 13.980469 8.5625 15.160156 9.316406 15.097656 Z M 9.316406 15.097656 " fill-opacity="1" fill-rule="nonzero"/></g></svg>